# xmcd
#
# Track frame offsets: 
#        150
#        12136
#        40827
#        54020
#        68164
#        79900
#        94575
#        108073
#        121009
#        137320
#        150320
#        163705
#        177173
#        191462
#        203392
#        215976
#
# Disc length: 3031 seconds
#
# Revision: 1
# Processed by: cddbd v1.5.1PL2 Copyright (c) Steve Scherf et al.
# Submitted via: ExactAudioCopy v0.95b3
#
DISCID=ba0bd510
DTITLE=Various Artist - 16 Classic Blues Songs from the 1920's: Vol. 2
DYEAR=2005
DGENRE=Blues
TTITLE0=Skip James - Drunken Spree
TTITLE1=Sun House - My Black Mama (Parts 1 and 2)
TTITLE2=Ma Rainey - Blues, Oh Blues
TTITLE3=Papa Charlie Jackson - Jungle Man Blues
TTITLE4=Ed Bell - Mamlish Blues
TTITLE5=Mississippi Sheiks - Sitting On Top Of The World
TTITLE6=Charley Patton - Pony Blues
TTITLE7=Jaydee Short - Lonesome Swamp Rattlesnake
TTITLE8=Blind Blake - Depressions Gone From Me Blues
TTITLE9=Ida Cox - Midnight Hour Blues
TTITLE10=Beale Street Sheiks - Half Cup Of Tea
TTITLE11=Blind Lemon Jefferson - Christmas Eve Blues
TTITLE12=King Solomon Hill - My Buddy, Blind Papa Lemon
TTITLE13=Blind Joe Reynolds - Ninety Nine Blues
TTITLE14=Memphis Jug Band - You Gotta Have That Thing
TTITLE15=Memphis Jug Band - Bottle It Up And Go
EXTD=
EXTT0=
EXTT1=
EXTT2=
EXTT3=
EXTT4=
EXTT5=
EXTT6=
EXTT7=
EXTT8=
EXTT9=
EXTT10=
EXTT11=
EXTT12=
EXTT13=
EXTT14=
EXTT15=
PLAYORDER=
